<svg xmlns="http://www.w3.org/2000/svg" viewBox="0 0 32 32" width="32" height="32">
  <!-- Steam wisps -->
  <path d="M11 6 Q10 4 11 2 Q12 0 11 -1" stroke="#4ade80" stroke-width="1.2" stroke-linecap="round" fill="none" opacity="0.7"/>
  <path d="M16 5 Q15 3 16 1 Q17 -1 16 -2" stroke="#4ade80" stroke-width="1.2" stroke-linecap="round" fill="none" opacity="0.7"/>
  <path d="M21 6 Q20 4 21 2 Q22 0 21 -1" stroke="#4ade80" stroke-width="1.2" stroke-linecap="round" fill="none" opacity="0.7"/>

  <!-- Cup body -->
  <path d="M7 10 L9 26 Q9.5 28 12 28 L20 28 Q22.5 28 23 26 L25 10 Z" fill="#16a34a"/>
  
  <!-- Cup rim -->
  <rect x="6" y="8" width="20" height="3" rx="1.5" fill="#15803d"/>

  <!-- Coffee surface inside cup (lighter green tone) -->
  <ellipse cx="16" cy="11" rx="8.5" ry="1.2" fill="#bbf7d0" opacity="0.4"/>

  <!-- Handle -->
  <path d="M24 14 Q30 14 30 19 Q30 24 24 24" stroke="#15803d" stroke-width="2.5" stroke-linecap="round" fill="none"/>

  <!-- Subtle shine on cup -->
  <path d="M10 13 Q11 12 12 14" stroke="#4ade80" stroke-width="1" stroke-linecap="round" fill="none" opacity="0.5"/>

  <!-- Saucer -->
  <ellipse cx="16" cy="29" rx="11" ry="2" fill="#15803d"/>
  <ellipse cx="16" cy="29" rx="9" ry="1.3" fill="#166534"/>
</svg>
